<mxfile host="app.diagrams.net" modified="2020-06-05T07:30:03.651Z" agent="5.0 (Windows NT 10.0; Win64; x64) AppleWebKit/537.36 (KHTML, like Gecko) Chrome/83.0.4103.97 Safari/537.36" etag="yTp08LlVPSVJ_ygBvSYf" version="13.1.14" type="github">
  <diagram id="g5Plbh_AKTesNDF9eLHS" name="Page-1">
    <mxGraphModel dx="1422" dy="762" grid="1" gridSize="10" guides="1" tooltips="1" connect="1" arrows="1" fold="1" page="1" pageScale="1" pageWidth="850" pageHeight="1100" math="0" shadow="0" extFonts="GT Walsheim^https://docs.kontent.ai/fonts/GT-Walsheim-Regular.woff">
      <root>
        <mxCell id="0" />
        <mxCell id="1" parent="0" />
        <mxCell id="4PxdUijkUJ5LaHFqjFEA-36" style="edgeStyle=orthogonalEdgeStyle;rounded=0;orthogonalLoop=1;jettySize=auto;html=1;fontSize=14;fontFamily=GT Walsheim;" parent="1" source="4PxdUijkUJ5LaHFqjFEA-1" edge="1">
          <mxGeometry relative="1" as="geometry">
            <mxPoint x="445" y="210" as="targetPoint" />
          </mxGeometry>
        </mxCell>
        <mxCell id="4PxdUijkUJ5LaHFqjFEA-1" value="David&lt;br style=&quot;font-size: 14px;&quot;&gt;IT Manager" style="shape=umlActor;verticalLabelPosition=middle;labelBackgroundColor=#ffffff;verticalAlign=middle;html=1;outlineConnect=0;strokeWidth=4;labelPosition=right;align=left;spacingLeft=5;fontFamily=GT Walsheim;fontSize=14;" parent="1" vertex="1">
          <mxGeometry x="430" y="30" width="30" height="60" as="geometry" />
        </mxCell>
        <mxCell id="4PxdUijkUJ5LaHFqjFEA-19" style="edgeStyle=orthogonalEdgeStyle;rounded=0;orthogonalLoop=1;jettySize=auto;html=1;fontFamily=GT Walsheim;fontSize=14;" parent="1" source="4PxdUijkUJ5LaHFqjFEA-2" edge="1">
          <mxGeometry relative="1" as="geometry">
            <mxPoint x="200" y="270" as="targetPoint" />
            <Array as="points">
              <mxPoint x="145" y="270" />
            </Array>
          </mxGeometry>
        </mxCell>
        <mxCell id="4PxdUijkUJ5LaHFqjFEA-20" style="edgeStyle=orthogonalEdgeStyle;rounded=0;orthogonalLoop=1;jettySize=auto;html=1;fontFamily=GT Walsheim;fontSize=14;" parent="1" source="4PxdUijkUJ5LaHFqjFEA-2" edge="1">
          <mxGeometry relative="1" as="geometry">
            <mxPoint x="210" y="340" as="targetPoint" />
            <Array as="points">
              <mxPoint x="145" y="320" />
              <mxPoint x="210" y="320" />
              <mxPoint x="210" y="340" />
            </Array>
          </mxGeometry>
        </mxCell>
        <mxCell id="4PxdUijkUJ5LaHFqjFEA-21" style="edgeStyle=orthogonalEdgeStyle;rounded=0;orthogonalLoop=1;jettySize=auto;html=1;fontFamily=GT Walsheim;fontSize=14;" parent="1" source="4PxdUijkUJ5LaHFqjFEA-2" target="4PxdUijkUJ5LaHFqjFEA-15" edge="1">
          <mxGeometry relative="1" as="geometry">
            <mxPoint x="130" y="340" as="targetPoint" />
            <Array as="points">
              <mxPoint x="145" y="320" />
              <mxPoint x="80" y="320" />
            </Array>
          </mxGeometry>
        </mxCell>
        <mxCell id="4PxdUijkUJ5LaHFqjFEA-2" value="Lisa&lt;br style=&quot;font-size: 14px;&quot;&gt;Content Manager" style="shape=umlActor;verticalLabelPosition=middle;labelBackgroundColor=#ffffff;verticalAlign=middle;html=1;outlineConnect=0;labelPosition=right;align=left;spacingLeft=5;strokeWidth=4;fontFamily=GT Walsheim;fontSize=14;" parent="1" vertex="1">
          <mxGeometry x="130" y="170" width="30" height="60" as="geometry" />
        </mxCell>
        <mxCell id="4PxdUijkUJ5LaHFqjFEA-9" value="Matt&lt;br style=&quot;font-size: 14px;&quot;&gt;Content Editor&lt;br style=&quot;font-size: 14px;&quot;&gt;Lisa&#39;s substitute" style="shape=umlActor;verticalLabelPosition=middle;labelBackgroundColor=#ffffff;verticalAlign=middle;html=1;outlineConnect=0;labelPosition=right;align=left;spacingLeft=5;strokeWidth=4;fontFamily=GT Walsheim;fontSize=14;" parent="1" vertex="1">
          <mxGeometry x="200" y="240" width="30" height="60" as="geometry" />
        </mxCell>
        <mxCell id="4PxdUijkUJ5LaHFqjFEA-13" value="" style="group;fontFamily=GT Walsheim;fontSize=14;" parent="1" vertex="1" connectable="0">
          <mxGeometry x="190" y="346" width="50" height="70" as="geometry" />
        </mxCell>
        <mxCell id="4PxdUijkUJ5LaHFqjFEA-10" value="Content Editors&lt;br style=&quot;font-size: 14px;&quot;&gt;Insurance Specialists" style="shape=umlActor;verticalLabelPosition=bottom;labelBackgroundColor=#ffffff;verticalAlign=top;html=1;outlineConnect=0;strokeWidth=4;fontFamily=GT Walsheim;fontSize=14;" parent="4PxdUijkUJ5LaHFqjFEA-13" vertex="1">
          <mxGeometry y="10" width="30" height="60" as="geometry" />
        </mxCell>
        <mxCell id="4PxdUijkUJ5LaHFqjFEA-11" value="" style="shape=umlActor;verticalLabelPosition=bottom;labelBackgroundColor=#ffffff;verticalAlign=top;html=1;outlineConnect=0;strokeWidth=4;fontFamily=GT Walsheim;fontSize=14;" parent="4PxdUijkUJ5LaHFqjFEA-13" vertex="1">
          <mxGeometry x="20" width="30" height="60" as="geometry" />
        </mxCell>
        <mxCell id="4PxdUijkUJ5LaHFqjFEA-16" value="" style="group;fontFamily=GT Walsheim;fontSize=14;" parent="1" vertex="1" connectable="0">
          <mxGeometry x="40" y="340" width="70" height="80" as="geometry" />
        </mxCell>
        <mxCell id="4PxdUijkUJ5LaHFqjFEA-7" value="&lt;br style=&quot;font-size: 14px;&quot;&gt;Content Editors" style="shape=umlActor;verticalLabelPosition=bottom;labelBackgroundColor=#ffffff;verticalAlign=top;html=1;outlineConnect=0;strokeWidth=4;fontFamily=GT Walsheim;fontSize=14;" parent="4PxdUijkUJ5LaHFqjFEA-16" vertex="1">
          <mxGeometry x="20" y="10" width="30" height="60" as="geometry" />
        </mxCell>
        <mxCell id="4PxdUijkUJ5LaHFqjFEA-8" value="" style="shape=umlActor;verticalLabelPosition=bottom;labelBackgroundColor=#ffffff;verticalAlign=top;html=1;outlineConnect=0;strokeWidth=4;fontFamily=GT Walsheim;fontSize=14;" parent="4PxdUijkUJ5LaHFqjFEA-16" vertex="1">
          <mxGeometry y="20" width="30" height="60" as="geometry" />
        </mxCell>
        <mxCell id="4PxdUijkUJ5LaHFqjFEA-15" value="" style="shape=umlActor;verticalLabelPosition=bottom;labelBackgroundColor=#ffffff;verticalAlign=top;html=1;outlineConnect=0;strokeWidth=4;fontFamily=GT Walsheim;fontSize=14;" parent="4PxdUijkUJ5LaHFqjFEA-16" vertex="1">
          <mxGeometry x="40" width="30" height="60" as="geometry" />
        </mxCell>
        <mxCell id="4PxdUijkUJ5LaHFqjFEA-23" value="&lt;br style=&quot;font-size: 14px;&quot;&gt;Developers" style="shape=umlActor;verticalLabelPosition=bottom;labelBackgroundColor=#ffffff;verticalAlign=top;html=1;outlineConnect=0;strokeWidth=4;fontFamily=GT Walsheim;fontSize=14;" parent="1" vertex="1">
          <mxGeometry x="430" y="220" width="30" height="60" as="geometry" />
        </mxCell>
        <mxCell id="4PxdUijkUJ5LaHFqjFEA-24" value="" style="shape=umlActor;verticalLabelPosition=bottom;labelBackgroundColor=#ffffff;verticalAlign=top;html=1;outlineConnect=0;strokeWidth=4;fontFamily=GT Walsheim;fontSize=14;" parent="1" vertex="1">
          <mxGeometry x="410" y="230" width="30" height="60" as="geometry" />
        </mxCell>
        <mxCell id="4PxdUijkUJ5LaHFqjFEA-27" style="edgeStyle=orthogonalEdgeStyle;rounded=0;orthogonalLoop=1;jettySize=auto;html=1;fontFamily=GT Walsheim;fontSize=14;" parent="1" source="4PxdUijkUJ5LaHFqjFEA-26" edge="1">
          <mxGeometry relative="1" as="geometry">
            <mxPoint x="145" y="160" as="targetPoint" />
          </mxGeometry>
        </mxCell>
        <mxCell id="4PxdUijkUJ5LaHFqjFEA-26" value="Jennifer&lt;br style=&quot;font-size: 14px;&quot;&gt;Director of Content Strategy" style="shape=umlActor;verticalLabelPosition=middle;labelBackgroundColor=#ffffff;verticalAlign=middle;html=1;outlineConnect=0;labelPosition=right;align=left;spacingLeft=5;strokeWidth=4;fontFamily=GT Walsheim;fontSize=14;" parent="1" vertex="1">
          <mxGeometry x="130" y="30" width="30" height="60" as="geometry" />
        </mxCell>
        <mxCell id="4PxdUijkUJ5LaHFqjFEA-32" value="?" style="text;html=1;strokeColor=none;fillColor=none;align=center;verticalAlign=middle;whiteSpace=wrap;rounded=0;fontSize=55;fontStyle=0;fontFamily=GT Walsheim;" parent="1" vertex="1">
          <mxGeometry x="448" y="208" width="40" height="50" as="geometry" />
        </mxCell>
        <mxCell id="4PxdUijkUJ5LaHFqjFEA-33" value="&lt;br style=&quot;font-size: 14px;&quot;&gt;Legal team" style="shape=umlActor;verticalLabelPosition=bottom;labelBackgroundColor=#ffffff;verticalAlign=top;html=1;outlineConnect=0;strokeWidth=4;fontFamily=GT Walsheim;fontSize=14;" parent="1" vertex="1">
          <mxGeometry x="627.5" y="195" width="30" height="60" as="geometry" />
        </mxCell>
        <mxCell id="4PxdUijkUJ5LaHFqjFEA-34" value="" style="shape=umlActor;verticalLabelPosition=bottom;labelBackgroundColor=#ffffff;verticalAlign=top;html=1;outlineConnect=0;strokeWidth=4;fontFamily=GT Walsheim;fontSize=14;" parent="1" vertex="1">
          <mxGeometry x="607.5" y="205" width="30" height="60" as="geometry" />
        </mxCell>
        <mxCell id="4PxdUijkUJ5LaHFqjFEA-35" value="?" style="text;html=1;strokeColor=none;fillColor=none;align=center;verticalAlign=middle;whiteSpace=wrap;rounded=0;fontSize=55;fontStyle=0;fontFamily=GT Walsheim;" parent="1" vertex="1">
          <mxGeometry x="645.5" y="183" width="40" height="50" as="geometry" />
        </mxCell>
        <mxCell id="4PxdUijkUJ5LaHFqjFEA-51" value="" style="rounded=0;whiteSpace=wrap;html=1;strokeWidth=2;fontSize=14;fontColor=#F05A22;fillColor=none;strokeColor=#F05A22;fontFamily=GT Walsheim;" parent="1" vertex="1">
          <mxGeometry x="90" y="140" width="260" height="170" as="geometry" />
        </mxCell>
        <mxCell id="4PxdUijkUJ5LaHFqjFEA-52" value="" style="group;fontFamily=GT Walsheim;fontSize=14;" parent="1" vertex="1" connectable="0">
          <mxGeometry x="90" y="10" width="430" height="320" as="geometry" />
        </mxCell>
        <mxCell id="4PxdUijkUJ5LaHFqjFEA-41" value="" style="endArrow=none;html=1;fontSize=14;fontColor=#F05A22;strokeColor=#F05A22;strokeWidth=2;rounded=0;fontFamily=GT Walsheim;" parent="4PxdUijkUJ5LaHFqjFEA-52" edge="1">
          <mxGeometry width="50" height="50" relative="1" as="geometry">
            <mxPoint as="sourcePoint" />
            <mxPoint x="470" as="targetPoint" />
          </mxGeometry>
        </mxCell>
        <mxCell id="4PxdUijkUJ5LaHFqjFEA-42" value="" style="endArrow=none;html=1;fontSize=14;fontColor=#F05A22;strokeColor=#F05A22;strokeWidth=2;rounded=0;fontFamily=GT Walsheim;" parent="4PxdUijkUJ5LaHFqjFEA-52" edge="1">
          <mxGeometry width="50" height="50" relative="1" as="geometry">
            <mxPoint as="sourcePoint" />
            <mxPoint y="110" as="targetPoint" />
          </mxGeometry>
        </mxCell>
        <mxCell id="4PxdUijkUJ5LaHFqjFEA-43" value="" style="endArrow=none;html=1;fontSize=14;fontColor=#F05A22;strokeColor=#F05A22;strokeWidth=2;rounded=0;fontFamily=GT Walsheim;" parent="4PxdUijkUJ5LaHFqjFEA-52" edge="1">
          <mxGeometry width="50" height="50" relative="1" as="geometry">
            <mxPoint y="110" as="sourcePoint" />
            <mxPoint x="280" y="110" as="targetPoint" />
          </mxGeometry>
        </mxCell>
        <mxCell id="4PxdUijkUJ5LaHFqjFEA-44" value="" style="endArrow=none;html=1;fontSize=14;fontColor=#F05A22;strokeColor=#F05A22;strokeWidth=2;rounded=0;fontFamily=GT Walsheim;" parent="4PxdUijkUJ5LaHFqjFEA-52" edge="1">
          <mxGeometry width="50" height="50" relative="1" as="geometry">
            <mxPoint x="280" y="110" as="sourcePoint" />
            <mxPoint x="280" y="320" as="targetPoint" />
            <Array as="points">
              <mxPoint x="280" y="210" />
            </Array>
          </mxGeometry>
        </mxCell>
        <mxCell id="4PxdUijkUJ5LaHFqjFEA-45" value="" style="endArrow=none;html=1;fontSize=14;fontColor=#F05A22;strokeColor=#F05A22;strokeWidth=2;rounded=0;fontFamily=GT Walsheim;" parent="4PxdUijkUJ5LaHFqjFEA-52" edge="1">
          <mxGeometry width="50" height="50" relative="1" as="geometry">
            <mxPoint x="280" y="319" as="sourcePoint" />
            <mxPoint x="470" y="319" as="targetPoint" />
          </mxGeometry>
        </mxCell>
        <mxCell id="4PxdUijkUJ5LaHFqjFEA-46" value="" style="endArrow=none;html=1;fontSize=14;fontColor=#F05A22;strokeColor=#F05A22;strokeWidth=2;rounded=0;fontFamily=GT Walsheim;" parent="4PxdUijkUJ5LaHFqjFEA-52" edge="1">
          <mxGeometry width="50" height="50" relative="1" as="geometry">
            <mxPoint x="470" as="sourcePoint" />
            <mxPoint x="470" y="320" as="targetPoint" />
          </mxGeometry>
        </mxCell>
        <mxCell id="4PxdUijkUJ5LaHFqjFEA-53" value="Project manager" style="text;html=1;strokeColor=none;fillColor=none;align=center;verticalAlign=middle;whiteSpace=wrap;rounded=0;fontSize=14;fontColor=#F05A22;fontStyle=1;rotation=-90;fontFamily=GT Walsheim;" parent="1" vertex="1">
          <mxGeometry x="482.5" y="175" width="125" height="20" as="geometry" />
        </mxCell>
        <mxCell id="4PxdUijkUJ5LaHFqjFEA-55" value="Content reviewer" style="text;html=1;strokeColor=none;fillColor=none;align=center;verticalAlign=middle;whiteSpace=wrap;rounded=0;fontSize=14;fontColor=#F05A22;fontStyle=1;rotation=-90;fontFamily=GT Walsheim;" parent="1" vertex="1">
          <mxGeometry x="36" y="215" width="125" height="20" as="geometry" />
        </mxCell>
        <mxCell id="4PxdUijkUJ5LaHFqjFEA-56" value="Content editor" style="text;html=1;strokeColor=none;fillColor=none;align=center;verticalAlign=middle;whiteSpace=wrap;rounded=0;fontSize=14;fontColor=#F05A22;fontStyle=1;rotation=0;fontFamily=GT Walsheim;" parent="1" vertex="1">
          <mxGeometry x="12.5" y="451" width="125" height="20" as="geometry" />
        </mxCell>
        <mxCell id="4PxdUijkUJ5LaHFqjFEA-58" value="Content editor - Insurance" style="text;html=1;strokeColor=none;fillColor=none;align=center;verticalAlign=middle;whiteSpace=wrap;rounded=0;fontSize=14;fontColor=#F05A22;fontStyle=1;rotation=0;fontFamily=GT Walsheim;" parent="1" vertex="1">
          <mxGeometry x="130" y="456" width="190" height="20" as="geometry" />
        </mxCell>
        <mxCell id="4PxdUijkUJ5LaHFqjFEA-59" value="Legal" style="text;html=1;strokeColor=none;fillColor=none;align=center;verticalAlign=middle;whiteSpace=wrap;rounded=0;fontSize=14;fontColor=#F05A22;fontStyle=1;rotation=0;fontFamily=GT Walsheim;" parent="1" vertex="1">
          <mxGeometry x="580" y="294" width="125" height="20" as="geometry" />
        </mxCell>
      </root>
    </mxGraphModel>
  </diagram>
</mxfile>
